<?xml version="1.0" encoding="utf-8"?>
<!-- Generator: Adobe Illustrator 25.4.1, SVG Export Plug-In . SVG Version: 6.00 Build 0)  -->
<svg version="1.1" id="Layer_1" xmlns="http://www.w3.org/2000/svg" xmlns:xlink="http://www.w3.org/1999/xlink" x="0px" y="0px"
	 viewBox="0 0 1920 1080" style="enable-background:new 0 0 1920 1080;" xml:space="preserve">
<style type="text/css">
	.st0{fill:#FFFFFF;}
</style>
<g>
	<g>
		<path class="st0" d="M536.15,324.03c-39.85-21.42-85.42-33.55-133.81-33.55C245.86,290.48,119,417.34,119,573.78
			c0,156.49,126.86,283.35,283.35,283.35c156.49,0,283.35-126.86,283.35-283.35c0-13.04,0.86-480.9,0.86-480.9l-150.4-57.1V324.03z
			 M402.35,709.96c-75.2,0-136.14-60.98-136.14-136.18c0-75.16,60.94-136.14,136.14-136.14c75.2,0,136.14,60.98,136.14,136.14
			C538.48,648.98,477.55,709.96,402.35,709.96z"/>
		<path class="st0" d="M1000.35,290.48C843.86,290.48,717,417.34,717,573.78c0,156.49,126.86,283.35,283.35,283.35
			c81.37,0,154.73-34.29,206.35-89.26l-5.03-2.94l-103.24-96.74c-24.73,25.75-59.55,41.77-98.09,41.77
			c-20.39,0-39.73-4.5-57.05-12.51c-22.93-10.59-42.38-27.38-56.28-48.18c-1.31-2-2.62-4.01-3.8-6.09h234.3
			c-0.04,0.04-0.04,0.08-0.08,0.12h157.67c5.6-22.23,8.58-45.53,8.58-69.52C1283.69,417.34,1156.83,290.48,1000.35,290.48z
			 M886.44,499.24c24.32-37.11,66.25-61.59,113.9-61.59c47.65,0,89.59,24.48,113.9,61.59H886.44z"/>
		<polygon class="st0" points="1636.55,287.22 1511.52,602.52 1379.69,287.22 1207.09,287.22 1436.77,795.51 1336.2,1044.22 
			1497.93,1044.22 1801,287.22 		"/>
	</g>
</g>
</svg>
