<?xml version="1.0" encoding="utf-8"?>
<!-- Generator: Adobe Illustrator 25.2.1, SVG Export Plug-In . SVG Version: 6.00 Build 0)  -->
<svg version="1.1" id="Layer_1" xmlns="http://www.w3.org/2000/svg" xmlns:xlink="http://www.w3.org/1999/xlink" x="0px" y="0px"
	 viewBox="0 0 1455 642" style="enable-background:new 0 0 1455 642;" xml:space="preserve">
<style type="text/css">
	.st0{fill:url(#SVGID_1_);stroke:#487F8E;stroke-width:2.4708;stroke-linecap:round;stroke-miterlimit:10;}
	.st1{fill:url(#SVGID_2_);stroke:#3E6E7A;stroke-width:2.4708;stroke-linecap:round;stroke-miterlimit:10;}
	.st2{fill:url(#SVGID_3_);stroke:#487F8E;stroke-width:2.4708;stroke-linecap:round;stroke-miterlimit:10;}
	.st3{fill:url(#SVGID_4_);stroke:#487F8E;stroke-width:2.4708;stroke-linecap:round;stroke-miterlimit:10;}
	.st4{fill:url(#SVGID_5_);stroke:#487F8E;stroke-width:2.4708;stroke-linecap:round;stroke-miterlimit:10;}
	.st5{fill:url(#SVGID_6_);stroke:#487F8E;stroke-width:2.4708;stroke-linecap:round;stroke-miterlimit:10;}
	.st6{fill:#8E9398;}
</style>
<g>
	<linearGradient id="SVGID_1_" gradientUnits="userSpaceOnUse" x1="436.7944" y1="72.6246" x2="171.9028" y2="72.6246">
		<stop  offset="0" style="stop-color:#ADBFCE"/>
		<stop  offset="0.5515" style="stop-color:#7F9EAE"/>
		<stop  offset="1" style="stop-color:#487F94"/>
	</linearGradient>
	<polygon class="st0" points="457.32,89.35 179.94,89.35 200.38,55.9 435.59,55.9 	"/>
	<linearGradient id="SVGID_2_" gradientUnits="userSpaceOnUse" x1="245.7085" y1="556.4041" x2="523.0906" y2="556.4041">
		<stop  offset="0" style="stop-color:#A9B8C5"/>
		<stop  offset="0.5515" style="stop-color:#7593A2"/>
		<stop  offset="1" style="stop-color:#3F7082"/>
	</linearGradient>
	<polygon class="st1" points="523.09,539.68 245.71,539.68 266.15,573.13 501.36,573.13 	"/>
	<linearGradient id="SVGID_3_" gradientUnits="userSpaceOnUse" x1="80.3587" y1="454.4397" x2="241.9119" y2="454.4397">
		<stop  offset="0" style="stop-color:#ADBFCE"/>
		<stop  offset="0.5515" style="stop-color:#7F9EAE"/>
		<stop  offset="1" style="stop-color:#487F94"/>
	</linearGradient>
	<polygon class="st2" points="241.91,573.13 98.4,335.75 80.36,370.55 202.05,571.83 	"/>
	<linearGradient id="SVGID_4_" gradientUnits="userSpaceOnUse" x1="49.262" y1="230.3656" x2="207.5819" y2="230.3656">
		<stop  offset="0" style="stop-color:#ADBFCE"/>
		<stop  offset="0.5515" style="stop-color:#7F9EAE"/>
		<stop  offset="1" style="stop-color:#487F94"/>
	</linearGradient>
	<polygon class="st3" points="67.09,349.95 207.58,110.78 168.39,111.47 49.26,314.27 	"/>
	<linearGradient id="SVGID_5_" gradientUnits="userSpaceOnUse" x1="460.2275" y1="175.7527" x2="622.1011" y2="175.7527">
		<stop  offset="0" style="stop-color:#ADBFCE"/>
		<stop  offset="0.5515" style="stop-color:#7F9EAE"/>
		<stop  offset="1" style="stop-color:#487F94"/>
	</linearGradient>
	<polygon class="st4" points="602.97,294.67 460.23,56.84 499.43,56.84 622.1,261.13 	"/>
	<linearGradient id="SVGID_6_" gradientUnits="userSpaceOnUse" x1="495.3313" y1="399.0779" x2="653.3915" y2="399.0779">
		<stop  offset="0" style="stop-color:#ADBFCE"/>
		<stop  offset="0.5515" style="stop-color:#7F9EAE"/>
		<stop  offset="1" style="stop-color:#487F94"/>
	</linearGradient>
	<polygon class="st5" points="495.33,518.74 634.43,279.42 653.39,314.74 533.94,518.74 	"/>
	<path class="st6" d="M162.68,320.01c0.57,19.39,14.15,46.35,41.45,45.68c10.25-0.26,22.66-2.89,36.72-13.49
		c-2.35,6.21-5.83,16.98-10.09,28.64c-11.05,5.88-24.88,6.77-37.9,6.77c-34.47,0-62.41-33.78-62.41-75.44
		c0-41.66,29.98-68.72,64.45-68.72c13.78,0.22,23.29,1.2,29.68,2.69c0.13,12.07-0.17,17.87-0.11,24.77
		c-12.9-8.12-23.63-9.01-32.06-8.4C168.6,264.24,161.51,292.91,162.68,320.01z"/>
	<path class="st6" d="M347.93,386.3c0,0-26.78,8.56-67.86-72.13c-9.2-19.55-14.95-13.63-14.95-13.63s0.4,53.07,0.49,68.85
		c0,5.59,7.22,13.14,7.22,13.14h-28.31c0,0,3.51-6.57,3.51-12.15c0-4.2,0.88-70.66,0-105.01c-0.67-11.07-7.18-18.57-7.18-18.57
		h33.64l52.5,82.36c0,0,5.66,2.42,4.94-4.86c-0.46-4.6,1.74-67.65-6-77.33c11.62,0,28.69,0,28.69,0s-6.19,4.22-6.16,13.9
		C348.49,270.55,347.93,386.3,347.93,386.3z"/>
	<path class="st6" d="M453.09,339.81c-1.05-26.01-26.35-33.99-26.35-33.99s17.97-9.92,19.48-26.4
		c1.52-16.48-14.52-32.62-27.08-32.62c-7.6,0-61.41,0-61.41,0s4.84,2.81,4.84,7.58c0,26.83,0,115.87,0,119.42
		c0,4.18-4.84,7.7-4.84,7.7s51.53,0,64.2,0C434.61,381.5,454.15,365.82,453.09,339.81z M394.38,280.12c0-11.9,0-15.36,0-15.36
		s9.44-1.67,13.88,1.73c6.33,4.84,5.61,8.77,5.61,15.36c0,5.95-2.82,12.94-8.44,16.4c-5.62,3.46-11.05,1.66-11.05,1.66
		S394.38,292.02,394.38,280.12z M413.2,362.82c-6.89,4.25-18.81,2.04-18.81,2.04s0-9.68,0-24.28c0-14.59,0-23.02,0-23.02
		s10.06-2.14,16.15,1.02c7.54,3.91,12.33,13.91,12.33,21.99C422.86,347.88,420.09,358.57,413.2,362.82z"/>
	<path class="st6" d="M514.74,386.56c0,0-27.09-6.51-31.99-21.13C477.85,350.81,443,246.8,443,246.8h35.87l25.71,96.29
		c0,0,4.48,11.36,10.16-6.28c3.97-12.33,16.5-54.13,18.54-76.53c0.87-9.64-7.17-13.49-7.17-13.49h29.59L514.74,386.56z"/>
	<path class="st6" d="M725.46,162.49c1.24,18.98,16.98,29.95,33.03,29.57c6.03-0.14,13.33-2.63,21.6-8.54
		c0,2.03-0.93,7.03-5.48,13.68c-6.49,3.28-15.09,2.99-22.75,2.99c-20.27,0-40.07-18.84-40.07-42.07s20.99-38.33,41.27-38.33
		c8.1,0.13,18.61,2.69,22.38,3.53c0.07,6.73-0.11,9.96-0.07,13.81c-3.69-4.3-7.6-6.98-23.77-8.61
		C737.59,129.48,724.44,140.82,725.46,162.49z"/>
	<path class="st6" d="M887.03,271.89c1.24,18.99,16.98,29.95,33.04,29.57c6.03-0.14,13.32-2.63,21.59-8.55
		c0,2.03-0.92,7.04-5.47,13.69c-6.5,3.28-15.09,2.99-22.75,2.99c-20.27,0-40.07-18.84-40.07-42.07c0-23.23,21-38.33,41.28-38.33
		c8.1,0.12,18.61,2.69,22.37,3.52c0.08,6.73-0.11,9.97-0.07,13.81c-3.69-4.3-7.6-6.98-23.77-8.61
		C899.17,238.88,886.02,250.22,887.03,271.89z"/>
	<path class="st6" d="M914.57,389.15c1.24,18.99,16.98,29.95,33.04,29.58c6.03-0.14,13.32-2.64,21.59-8.55
		c0,2.03-0.92,7.04-5.47,13.69c-6.5,3.27-15.09,2.98-22.76,2.98c-20.27,0-40.07-18.84-40.07-42.07c0-23.23,21-38.33,41.28-38.33
		c8.1,0.12,18.61,2.69,22.37,3.52c0.07,6.73-0.11,9.97-0.07,13.81c-3.69-4.3-7.6-6.98-23.77-8.61
		C926.71,356.13,913.55,367.47,914.57,389.15z"/>
	<path class="st6" d="M778.83,310.53c0,0-8.56,2.22-45.52-50.74c-6.17-11.07-13.57-11.15-13.57-11.15
		c0.16,18.84,0.18,32.22,0.33,52.33c0,3.16,4.84,7.43,4.84,7.43h-15.45c0,0,2.36-3.71,2.36-6.88c0-2.37,0.59-39.96,0-59.39
		c-0.45-6.27-4.82-10.51-4.82-10.51h16.78l45.31,57.92c0,0,3.8,1.37,3.32-2.75c-0.31-2.6,1.17-49.6-4.02-55.08
		c7.79,0,14.94,0,14.94,0s-4.15,2.39-4.13,7.86C779.21,245.06,778.83,310.53,778.83,310.53z"/>
	<path class="st6" d="M1138.85,310.53c0,0-8.56,2.22-45.52-50.74c-6.17-11.07-13.57-11.15-13.57-11.15
		c0.17,18.84,0.18,32.22,0.33,52.33c0,3.16,4.85,7.43,4.85,7.43h-15.45c0,0,2.35-3.71,2.35-6.88c0-2.37,0.59-39.96,0-59.39
		c-0.44-6.27-4.81-10.51-4.81-10.51h16.78l45.31,57.92c0,0,3.8,1.37,3.32-2.75c-0.31-2.6,1.17-49.6-4.03-55.08
		c7.79,0,14.94,0,14.94,0s-4.15,2.39-4.13,7.86C1139.22,245.06,1138.85,310.53,1138.85,310.53z"/>
	<path class="st6" d="M893.58,428.07c0,0-8.56,2.21-45.52-50.75c-6.17-11.06-13.57-11.14-13.57-11.14
		c0.17,18.84,0.19,32.22,0.33,52.33c0,3.16,4.84,7.43,4.84,7.43h-15.44c0,0,2.35-3.72,2.35-6.88c0-2.37,0.59-39.97,0-59.39
		c-0.45-6.26-4.81-10.5-4.81-10.5h16.78l45.31,57.92c0,0,3.8,1.36,3.31-2.76c-0.31-2.59,1.17-49.6-4.02-55.08
		c7.79,0,14.94,0,14.94,0s-4.15,2.39-4.13,7.87C893.95,362.6,893.58,428.07,893.58,428.07z"/>
	<path class="st6" d="M1270.21,200.94c0,0-8.56,2.22-45.52-50.75c-6.17-11.07-13.57-11.14-13.57-11.14
		c0.17,18.85,0.19,32.23,0.33,52.33c0,3.16,4.85,7.43,4.85,7.43h-15.45c0,0,2.35-3.71,2.35-6.88c0-2.37,0.58-39.97,0-59.39
		c-0.45-6.27-4.82-10.5-4.82-10.5h16.78l45.31,57.92c0,0,3.8,1.37,3.32-2.75c-0.31-2.6,1.17-49.61-4.03-55.08
		c7.79,0,14.94,0,14.94,0s-4.15,2.38-4.13,7.86C1270.58,135.46,1270.21,200.94,1270.21,200.94z"/>
	<path class="st6" d="M725.12,401.25c-0.61-14.86-15.05-19.43-15.05-19.43s10.26-5.66,11.13-15.08c0.87-9.42-8.29-18.64-15.47-18.64
		c-4.34,0-33.54,0-33.54,0s2.77,1.6,2.77,4.34c0,15.33,0,66.2,0,68.22c0,2.38-2.77,4.4-2.77,4.4s27.9,0,35.14,0
		C714.56,425.06,725.72,416.1,725.12,401.25z M688.11,367.15c0-6.8,0-11.23,0-11.23s9.83-0.81,12.88,0.15
		c9.46,2.97,9.5,8.3,9.5,12.07c0,3.4-0.36,6.1-9.94,10.01c-3.49,1.43-12.43,1.05-12.43,1.05S688.11,373.94,688.11,367.15z
		 M709.68,415.43c-10.48,4.12-21.57,0.13-21.57,0.13s0-5.53,0-13.88c0-8.33,0-15.12,0-15.12s11.95-1.98,19.43,1.96
		c5.62,2.97,9.57,8.55,9.57,13.16C717.11,405.85,716.4,413.09,709.68,415.43z"/>
	<path class="st6" d="M877.41,541.45c0,0-11.71-3.73-14.52-12.09c-2.8-8.36-26.52-67.87-26.52-67.87h15.07l18.94,58.44
		c0,0,6.21,6.74,9.46-3.35c2.27-7.06,14.1-34.56,15.26-47.38c0.5-5.51-4.11-7.72-4.11-7.72h16.93L877.41,541.45z"/>
	<path class="st6" d="M826.65,120.17c-24.49,0-44.34,17.84-44.34,39.86c0,22.02,19.85,39.87,44.34,39.87
		c24.49,0,44.34-17.85,44.34-39.87C870.99,138.02,851.13,120.17,826.65,120.17z M826.48,192.01c-19.64,0-29.99-14.31-29.99-31.97
		s10.35-31.97,29.99-31.97c19.65,0,30.34,14.31,30.34,31.97S846.12,192.01,826.48,192.01z"/>
	<path class="st6" d="M1146.02,120.17c-24.49,0-44.34,17.84-44.34,39.86c0,22.02,19.85,39.87,44.34,39.87
		c24.49,0,44.34-17.85,44.34-39.87C1190.36,138.02,1170.51,120.17,1146.02,120.17z M1145.85,192.01c-19.65,0-30-14.31-30-31.97
		s10.35-31.97,30-31.97c19.64,0,30.33,14.31,30.33,31.97S1165.5,192.01,1145.85,192.01z"/>
	<path class="st6" d="M1016.71,230.44c-24.49,0-44.34,17.85-44.34,39.87c0,22.02,19.86,39.86,44.34,39.86
		c24.49,0,44.33-17.84,44.33-39.86C1061.04,248.29,1041.2,230.44,1016.71,230.44z M1016.55,302.28c-19.64,0-30.01-14.31-30.01-31.97
		s10.36-31.97,30.01-31.97c19.63,0,30.33,14.31,30.33,31.97S1036.18,302.28,1016.55,302.28z"/>
	<path class="st6" d="M1097.67,460.31c-24.49,0-44.34,17.85-44.34,39.86c0,22.02,19.85,39.87,44.34,39.87
		c24.49,0,44.34-17.85,44.34-39.87C1142.01,478.16,1122.16,460.31,1097.67,460.31z M1097.51,532.15c-19.64,0-30-14.32-30-31.98
		c0-17.66,10.36-31.97,30-31.97c19.64,0,30.33,14.32,30.33,31.97C1127.83,517.83,1117.14,532.15,1097.51,532.15z"/>
	<path class="st6" d="M702.61,463c-4.34,0-33.54,0-33.54,0s2.76,1.6,2.76,4.33c0,15.33,0,66.2,0,68.23c0,2.38-2.76,4.39-2.76,4.39
		s27.89,0,35.14,0c35.65,0,35.65-43.23,35.65-43.23S738.16,463,702.61,463z M715.55,525.04c-13.5,10.06-31.74,5.4-31.74,5.4v-59.5
		c0,0,19.39-6,34.08,6.24c6.26,5.28,9.46,15.17,9.18,22.1C726.91,503.45,726.99,519.07,715.55,525.04z"/>
	<path class="st6" d="M800.14,526.7c-2.03,1.71-4.32,2.27-5.29,2.78c-13.63,4.72-29.83,0.97-29.83,0.97v-29.38
		c5.02-0.49,12.08-0.42,18.95,2.3c-0.02-0.16,0-10.15,0-10.15h-18.95v-22.26c0,0,13.32-3.92,25.96,1.08c-0.02-0.16,0-10.15,0-10.15
		h-40.7c0,0,2.76,2.74,2.76,5.47v68.23c0,2.38-2.76,4.39-2.76,4.39s27.9,0,35.13,0c5.37,0,4.52,0,10.15,0
		C797.97,539.14,800.65,530.65,800.14,526.7z"/>
	<path class="st6" d="M1263.84,526.7c-2.03,1.71-4.32,2.27-5.29,2.78c-13.64,4.72-29.83,0.97-29.83,0.97v-29.38
		c5.02-0.49,12.07-0.42,18.95,2.3c-0.02-0.16,0-10.15,0-10.15h-18.95v-22.26c0,0,13.31-3.92,25.95,1.08c-0.01-0.16,0-10.15,0-10.15
		h-40.69c0,0,2.77,2.74,2.77,5.47v68.23c0,2.38-2.77,4.39-2.77,4.39s27.89,0,35.14,0c5.37,0,4.51,0,10.14,0
		C1261.67,539.14,1264.35,530.65,1263.84,526.7z"/>
	<path class="st6" d="M990.36,540.15c0,0-4.06-2.49-10.07-14.54c-9.08-17.15-24.84-63.75-24.84-63.75h-14.97
		c0,0,1.29,4.46-0.42,9.54c-6.21,18.41-22.34,58.37-24.53,61.46c-4.98,6.93-7.98,7.29-7.98,7.29l20.83-0.66c0,0-4.6-2.2-4.11-7.72
		c0.06-0.52,3.92-10.58,8.37-22.18h30.72c3.39,8.51,6.44,16.29,7.32,18.92c2.25,6.75-0.27,11.63-0.27,11.63H990.36z M941.2,501
		c-4.58,0-4.1-2.94-4.1-2.94s7.84-20.73,8.78-23.62c2.17-3.21,6,6.72,6,6.72s3.13,7.67,6.85,16.9c0,0,0.47,2.94-4.1,2.94H941.2z"/>
	<path class="st6" d="M1053.08,425.71c0,0-4.05-2.5-10.08-14.54c-9.07-17.15-24.84-63.74-24.84-63.74h-14.97c0,0,1.3,4.46-0.42,9.53
		c-6.21,18.41-22.34,58.37-24.53,61.46c-4.98,6.94-7.98,7.29-7.98,7.29l20.83-0.65c0,0-4.61-2.2-4.1-7.72
		c0.06-0.52,3.91-10.58,8.37-22.18h30.71c3.39,8.51,6.45,16.29,7.33,18.92c2.25,6.76-0.28,11.63-0.28,11.63H1053.08z
		 M1003.93,386.56c-4.58,0-4.1-2.94-4.1-2.94s7.85-20.73,8.78-23.62c2.17-3.21,5.99,6.72,5.99,6.72s3.13,7.68,6.85,16.9
		c0,0,0.48,2.94-4.1,2.94H1003.93z"/>
	<path class="st6" d="M1227.22,425.71c0,0-4.05-2.5-10.07-14.54c-9.07-17.15-24.84-63.74-24.84-63.74h-14.97
		c0,0,1.29,4.46-0.42,9.53c-6.21,18.41-22.34,58.37-24.53,61.46c-4.98,6.94-7.98,7.29-7.98,7.29l20.83-0.65c0,0-4.6-2.2-4.1-7.72
		c0.06-0.52,3.92-10.58,8.37-22.18h30.71c3.4,8.51,6.45,16.29,7.33,18.92c2.25,6.76-0.28,11.63-0.28,11.63H1227.22z M1178.06,386.56
		c-4.57,0-4.09-2.94-4.09-2.94s7.84-20.73,8.77-23.62c2.17-3.21,6,6.72,6,6.72s3.13,7.68,6.84,16.9c0,0,0.48,2.94-4.09,2.94H1178.06
		z"/>
	<path class="st6" d="M1227.22,309.45c0,0-4.05-2.5-10.07-14.54c-9.07-17.15-24.84-63.75-24.84-63.75h-14.97
		c0,0,1.29,4.46-0.42,9.54c-6.21,18.41-22.34,58.37-24.53,61.46c-4.98,6.94-7.98,7.29-7.98,7.29l20.83-0.65c0,0-4.6-2.21-4.1-7.72
		c0.06-0.52,3.92-10.58,8.37-22.18h30.71c3.4,8.51,6.45,16.29,7.33,18.92c2.25,6.75-0.28,11.63-0.28,11.63H1227.22z M1178.06,270.31
		c-4.57,0-4.09-2.94-4.09-2.94s7.84-20.73,8.77-23.62c2.17-3.21,6,6.72,6,6.72s3.13,7.67,6.84,16.9c0,0,0.48,2.94-4.09,2.94H1178.06
		z"/>
	<path class="st6" d="M870.61,309.45c0,0-4.06-2.5-10.08-14.54c-9.06-17.15-24.84-63.75-24.84-63.75h-14.97c0,0,1.3,4.46-0.42,9.54
		c-6.21,18.41-22.33,58.37-24.53,61.46c-4.99,6.94-7.99,7.29-7.99,7.29l20.84-0.65c0,0-4.61-2.21-4.11-7.72
		c0.06-0.52,3.92-10.58,8.37-22.18h30.71c3.39,8.51,6.45,16.29,7.33,18.92c2.25,6.75-0.28,11.63-0.28,11.63H870.61z M821.45,270.31
		c-4.57,0-4.1-2.94-4.1-2.94s7.85-20.73,8.78-23.62c2.17-3.21,6,6.72,6,6.72s3.13,7.67,6.85,16.9c0,0,0.48,2.94-4.1,2.94H821.45z"/>
	<path class="st6" d="M819.08,425.54c0,0-4.05-2.49-10.08-14.54c-9.07-17.15-24.84-63.75-24.84-63.75H769.2c0,0,1.29,4.45-0.42,9.54
		c-6.21,18.41-22.34,58.37-24.53,61.47c-4.98,6.94-7.98,7.28-7.98,7.28l20.83-0.66c0,0-4.6-2.2-4.1-7.72
		c0.06-0.52,3.91-10.57,8.37-22.18h30.71c3.4,8.51,6.45,16.3,7.33,18.93c2.25,6.75-0.27,11.63-0.27,11.63H819.08z M769.93,386.4
		c-4.58,0-4.1-2.94-4.1-2.94s7.85-20.73,8.78-23.62c2.17-3.21,5.99,6.72,5.99,6.72s3.13,7.67,6.85,16.9c0,0,0.47,2.94-4.1,2.94
		H769.93z"/>
	<path class="st6" d="M1012.47,528.89c0.29-17.83,0.86-52.14,0.86-55.07c0-3.97,1.24-11.96,1.24-11.96h-14.96
		c0,0,1.32,10.81,1.6,24.02c0.41,19.9-0.18,45.26-0.18,47.22c0,3.28-2.84,6.42-2.84,6.42h8.19h5.92h31.46c0,0,3.72-8.44,5.71-13.21
		C1034.64,534.31,1020.3,531.56,1012.47,528.89z"/>
	<path class="st6" d="M1252.98,299.29c0.29-17.83,0.85-52.14,0.85-55.07c0-3.97,1.24-11.96,1.24-11.96h-14.96
		c0,0,1.32,10.81,1.6,24.02c0.41,19.91-0.18,45.25-0.18,47.23c0,3.27-2.83,6.41-2.83,6.41h8.19h5.92h31.46c0,0,3.72-8.44,5.71-13.21
		C1275.15,304.71,1260.8,301.96,1252.98,299.29z"/>
	<path class="st6" d="M1135.67,391.76c0.04-14.2,0.31-35.78,0.31-37.11c0-3.27,2.84-6.41,2.84-6.41h-8.19h-1.04h-1.03h-8.19
		c0,0,2.84,3.14,2.84,6.41c0,1.33,0.27,22.91,0.32,37.11c-0.05,13.86-0.32,25.96-0.32,27.3c0,3.28-2.84,6.41-2.84,6.41h8.19h1.03
		h1.04h8.19c0,0-2.84-3.14-2.84-6.41C1135.98,417.72,1135.71,405.62,1135.67,391.76z"/>
	<path class="st6" d="M1091.23,164.54c0.04-14.19,0.31-35.77,0.31-37.1c0-3.28,2.84-6.41,2.84-6.41h-8.19h-1.04h-1.03h-8.19
		c0,0,2.84,3.14,2.84,6.41c0,1.33,0.27,22.91,0.32,37.1c-0.05,13.86-0.32,25.97-0.32,27.31c0,3.28-2.84,6.41-2.84,6.41h8.19h1.03
		h1.04h8.19c0,0-2.84-3.14-2.84-6.41C1091.54,190.51,1091.27,178.4,1091.23,164.54z"/>
	<path class="st6" d="M963.1,275.98c0.05-14.19,0.31-35.77,0.31-37.1c0-3.28,2.84-6.42,2.84-6.42h-8.19h-1.03H956h-8.19
		c0,0,2.84,3.14,2.84,6.42c0,1.33,0.27,22.91,0.31,37.1c-0.05,13.86-0.31,25.97-0.31,27.31c0,3.28-2.84,6.41-2.84,6.41H956h1.03
		h1.03h8.19c0,0-2.84-3.14-2.84-6.41C963.41,301.95,963.15,289.84,963.1,275.98z"/>
	<path class="st6" d="M1001.03,164.54c0.04-14.19,0.31-35.77,0.31-37.1c0-3.28,2.84-6.41,2.84-6.41h-8.19h-1.04h-1.03h-8.19
		c0,0,2.84,3.14,2.84,6.41c0,1.33,0.27,22.91,0.32,37.1c-0.05,13.86-0.32,25.97-0.32,27.31c0,3.28-2.84,6.41-2.84,6.41h8.19h1.03
		h1.04h8.19c0,0-2.84-3.14-2.84-6.41C1001.34,190.51,1001.07,178.4,1001.03,164.54z"/>
	<path class="st6" d="M1303.55,397.93c0.01-0.87,0.01-1.78,0.02-2.7c0-3.8,1-4.74,1-4.74l30.43-44.77h-18.63
		c0,0,7.5,3.63,2.07,12.59c-0.87,3.27-20.95,26.43-20.95,26.43s-20.09-23.16-20.95-26.43c-5.43-8.96,2.07-12.59,2.07-12.59h-18.63
		l30.44,44.77c0,0,0.99,1.46,0.99,4.74c0,0.92,0.01,1.83,0.01,2.7c-0.04,13.86-0.31,25.97-0.31,27.31c0,3.27-2.84,6.41-2.84,6.41
		h8.19h1.04h1.03h8.19c0,0-2.84-3.14-2.84-6.41C1303.87,423.9,1303.6,411.8,1303.55,397.93z"/>
	<path class="st6" d="M1303.55,397.93c0.01-0.87,0.01-1.78,0.02-2.7c0-3.8,1-4.74,1-4.74l30.43-44.77h-18.63
		c0,0,7.5,3.63,2.07,12.59c-0.87,3.27-20.95,26.43-20.95,26.43s-20.09-23.16-20.95-26.43c-5.43-8.96,2.07-12.59,2.07-12.59h-18.63
		l30.44,44.77c0,0,0.99,1.46,0.99,4.74c0,0.92,0.01,1.83,0.01,2.7c-0.04,13.86-0.31,25.97-0.31,27.31c0,3.27-2.84,6.41-2.84,6.41
		h8.19h1.04h1.03h8.19c0,0-2.84-3.14-2.84-6.41C1303.87,423.9,1303.6,411.8,1303.55,397.93z"/>
	<path class="st6" d="M1051.17,157.61c-8.56-4.86-26.93-4.64-26.52-19.2c0-2.41,0.12-6.13,4.5-8.19c14.87-7.02,23.61,2.7,30.08,2.65
		c-1.22-0.55-1-6.82-1-10.25c-3.53-1.43-9.57-2.44-19.35-2.44c-11.06,0-27.21,9.81-27.21,20.87c0.05,14.36,13.02,18.15,24.87,22.05
		c6.4,2.12,10.04,4.74,12.05,6.71c3.26,3.76,5.83,8.1,5.05,12.68c-1.24,9.18-23.93,15.38-41.81,2.45c0,4.37,0.77,9.18,3.55,12.86
		c11.95,2.72,16.83,1.89,23.51,2.1c17.91,0.54,27.21-11.06,27.21-22.12C1067.32,163.43,1051.18,157.62,1051.17,157.61z"/>
	<path class="st6" d="M1308.2,497.73c-8.56-4.86-26.93-4.63-26.52-19.19c0-2.41,0.12-6.13,4.5-8.2c14.87-7.01,23.61,2.71,30.08,2.65
		c-1.21-0.55-0.99-6.82-0.99-10.25c-3.53-1.43-9.57-2.45-19.36-2.45c-11.06,0-27.21,9.81-27.21,20.88
		c0.05,14.35,13.02,18.14,24.86,22.05c6.4,2.12,10.04,4.74,12.06,6.71c3.25,3.76,5.83,8.09,5.04,12.68
		c-1.24,9.18-23.93,15.39-41.81,2.45c0,4.37,0.77,9.18,3.55,12.87c11.94,2.72,16.83,1.89,23.51,2.09
		c17.91,0.55,27.21-11.06,27.21-22.12C1324.35,503.56,1308.21,497.75,1308.2,497.73z"/>
	<path class="st6" d="M978.25,197.98c0,0-2.43-1.92-3.25-7.14c-0.28-1.76-9.32-62.55-9.32-64.61c0-2.9,3.8-5.22,3.8-5.22
		s-18.4-1.04-19.75,2.34c-1.35,3.39-8.61,34.1-23.16,49.13c-14.56-15.03-21.82-45.75-23.16-49.13c-1.35-3.38-19.74-2.34-19.74-2.34
		s3.8,2.32,3.8,5.22c0,2.05-9.05,62.84-9.32,64.61c-0.81,5.22-3.24,7.14-3.24,7.14h17.73c0,0-3.08-3.47-3.08-7.34
		c0-3.88,5.92-47.09,5.92-47.09s0.67-5.02,0.82-7.1c0.58-1.12,1.57-0.4,3.23,1.31c19.26,49.13,27.05,59.27,27.05,59.27
		s7.79-10.14,27.05-59.27c1.66-1.72,2.64-2.44,3.22-1.31c0.15,2.09,0.81,7.1,0.81,7.1s5.92,43.22,5.92,47.09
		c0,3.87-3.07,7.34-3.07,7.34H978.25z"/>
	<path class="st6" d="M1181.88,500.9c10.06-3.85,19.35-10.33,19.35-17.67c0-26.38-23.97-21.37-36.63-21.37h-14.68
		c0,0,2.76,2.74,2.76,5.47v68.23c0,2.38-2.76,4.39-2.76,4.39s9.32,0,17.13,0c0,0-3.02-1.55-3.02-4.3s0-31.06,0-31.06
		c0.02,0,0.06,0,0.09,0v-6.57c-0.03-0.02-0.06-0.03-0.09-0.04v-29.01c2.53-1.67,5.62-1.59,8.94-1.59c8.67,0,15.7,6.65,15.7,14.85
		c0.48,10.83-11.51,16.65-20.18,16.67l3.06,5.55c5.41,8.85,29.85,46.68,44.63,33.02C1216.4,537.28,1198.65,531.6,1181.88,500.9z"/>
	<path class="st6" d="M1093.21,386.51c10.06-3.85,19.35-10.33,19.35-17.67c0-26.39-23.97-21.37-36.63-21.37h-14.68
		c0,0,2.77,2.74,2.77,5.47v68.23c0,2.38-2.77,4.39-2.77,4.39s9.32,0,17.12,0c0,0-3.02-1.54-3.02-4.3c0-2.75,0-31.06,0-31.06
		c0.03,0,0.06-0.01,0.09-0.01v-6.57c-0.03-0.02-0.06-0.02-0.09-0.04v-29.02c2.54-1.66,5.62-1.58,8.94-1.58
		c8.67,0,15.71,6.65,15.71,14.85c0.48,10.83-11.51,16.65-20.18,16.67l3.06,5.55c5.41,8.86,29.86,46.67,44.64,33.02
		C1127.73,422.89,1109.97,417.21,1093.21,386.51z"/>
</g>
</svg>
