<?xml version="1.0" encoding="utf-8"?>
<!-- Generator: Adobe Illustrator 25.4.1, SVG Export Plug-In . SVG Version: 6.00 Build 0)  -->
<svg version="1.1" id="Layer_1" xmlns="http://www.w3.org/2000/svg" xmlns:xlink="http://www.w3.org/1999/xlink" x="0px" y="0px"
	 viewBox="0 0 1080 1510" style="enable-background:new 0 0 1080 1510;" xml:space="preserve">
<style type="text/css">
	.st0{fill:#FFFFFF;}
</style>
<path class="st0" d="M757.54,555.33C692.54,520.4,618.22,500.6,539.3,500.6c-255.23,0-462.13,206.9-462.13,462.07
	c0,255.23,206.9,462.13,462.13,462.13c255.23,0,462.13-206.9,462.13-462.13c0-21.26,1.4-791.01,1.4-791.01L757.54,85.2V555.33z
	 M539.3,1184.77c-122.65,0-222.03-99.45-222.03-222.1c0-122.58,99.39-222.03,222.03-222.03c122.65,0,222.03,99.45,222.03,222.03
	C761.33,1085.32,661.95,1184.77,539.3,1184.77z"/>
</svg>
